<?xml version="1.0" standalone="no"?>
<!DOCTYPE svg PUBLIC "-//W3C//DTD SVG 20010904//EN"
 "http://www.w3.org/TR/2001/REC-SVG-20010904/DTD/svg10.dtd">
<svg version="1.0" xmlns="http://www.w3.org/2000/svg"
 width="260.000000pt" height="260.000000pt" viewBox="0 0 260.000000 260.000000"
 preserveAspectRatio="xMidYMid meet">
<metadata>
Created by potrace 1.11, written by Peter Selinger 2001-2013
</metadata>
<g transform="translate(0.000000,260.000000) scale(0.100000,-0.100000)"
fill="#000000" stroke="none">
<path d="M0 1300 l0 -1300 1300 0 1300 0 0 1300 0 1300 -1300 0 -1300 0 0
-1300z m1077 466 c71 -22 130 -70 167 -136 29 -51 31 -62 31 -155 0 -84 -4
-107 -22 -141 -25 -46 -127 -144 -150 -144 -22 0 -14 -16 93 -171 52 -77 94
-147 92 -157 -3 -15 -18 -17 -110 -20 -129 -3 -121 -9 -242 171 l-86 127 0 95
c0 64 4 96 12 102 7 4 39 10 72 14 47 6 65 13 90 38 26 26 31 39 30 77 -1 37
-7 51 -33 77 l-31 32 -125 3 -125 4 0 -355 c0 -310 -2 -358 -16 -371 -19 -20
-183 -23 -202 -4 -9 9 -12 124 -12 458 0 245 4 450 8 456 14 22 40 24 272 20
181 -3 247 -8 287 -20z m1067 8 c12 -11 16 -35 16 -89 0 -103 -3 -105 -151
-105 l-119 0 0 -364 c0 -323 -2 -365 -16 -370 -29 -11 -179 -7 -192 6 -9 9
-12 105 -12 370 l0 358 -114 0 c-63 0 -121 3 -130 6 -13 5 -16 23 -16 93 0 54
5 92 12 99 9 9 103 12 359 12 303 0 350 -2 363 -16z"/>
</g>
</svg>
