
<svg width="41px" height="41px" viewBox="0 0 41 41" version="1.1" xmlns="http://www.w3.org/2000/svg" xmlns:xlink="http://www.w3.org/1999/xlink">
    <defs>
        <path d="M16.9197035,-2.43559092e-15 L24.0802965,-1.11712276e-15 C29.8188663,-2.17128094e-15 32.0077056,0.618729126 34.1801649,1.78057308 C36.3526242,2.94241704 38.057583,4.64737582 39.2194269,6.81983513 C40.3812709,8.99229444 41,11.1811337 41,16.9197035 L41,24.0802965 C41,29.8188663 40.3812709,32.0077056 39.2194269,34.1801649 C38.057583,36.3526242 36.3526242,38.057583 34.1801649,39.2194269 C32.0077056,40.3812709 29.8188663,41 24.0802965,41 L16.9197035,41 C11.1811337,41 8.99229444,40.3812709 6.81983513,39.2194269 C4.64737582,38.057583 2.94241704,36.3526242 1.78057308,34.1801649 C0.618729126,32.0077056 -5.58341513e-16,29.8188663 -3.80955059e-15,24.0802965 L-1.33686745e-15,16.9197035 C-2.03963957e-15,11.1811337 0.618729126,8.99229444 1.78057308,6.81983513 C2.94241704,4.64737582 4.64737582,2.94241704 6.81983513,1.78057308 C8.99229444,0.618729126 11.1811337,-1.38143274e-15 16.9197035,-2.43559092e-15 Z" id="path-1"></path>
        <linearGradient x1="50%" y1="0%" x2="50%" y2="100%" id="linearGradient-3">
            <stop stop-color="#FF8126" offset="0%"></stop>
            <stop stop-color="#FF117E" offset="100%"></stop>
        </linearGradient>
        <linearGradient x1="50%" y1="0%" x2="50%" y2="100%" id="linearGradient-4">
            <stop stop-color="#258CC4" offset="0%"></stop>
            <stop stop-color="#012A40" offset="100%"></stop>
        </linearGradient>
    </defs>
    <g id="Page-1" stroke="none" stroke-width="1" fill="none" fill-rule="evenodd">
        <g id="App-Icon-Copy">
            <g id="App-Icon">
                <mask id="mask-2" fill="white">
                    <use xlink:href="#path-1"></use>
                </mask>
                <g id="Mask"></g>
                <g id="Icon" mask="url(#mask-2)">
                    <rect id="Background" fill="url(#linearGradient-3)" fill-rule="evenodd" x="0" y="0" width="41" height="41"></rect>
                    <rect id="Background-Copy" fill="url(#linearGradient-4)" fill-rule="evenodd" x="0" y="0" width="41" height="41"></rect>
                    <g id="Smooth-Corners" fill="#000000" fill-rule="evenodd">
                        <path d="M16.938852,-6.5753926e-16 C11.2083053,3.9514509e-16 9.0114343,0.620046074 6.83435096,1.78436298 C4.65726763,2.94867989 2.94867989,4.65726763 1.78436298,6.83435096 C0.620046074,9.0114343 1.51292678e-15,11.2083053 2.21471635e-15,16.938852 L0,0 L16.938852,0 Z M24.061148,0 L41,0 L41,16.938852 C41,11.2083053 40.3799539,9.0114343 39.215637,6.83435096 C38.0513201,4.65726763 36.3427324,2.94867989 34.165649,1.78436298 C31.9885657,0.620046074 29.7916947,1.38121175e-15 24.061148,2.4338961e-15 Z M41,24.061148 L41,41 L24.061148,41 C29.7916947,41 31.9885657,40.3799539 34.165649,39.215637 C36.3427324,38.0513201 38.0513201,36.3427324 39.215637,34.165649 C40.3799539,31.9885657 41,29.7916947 41,24.061148 Z M16.938852,41 L0,41 L0,24.061148 C2.6343006e-16,29.7916947 0.620046074,31.9885657 1.78436298,34.165649 C2.94867989,36.3427324 4.65726763,38.0513201 6.83435096,39.215637 C9.0114343,40.3799539 11.2083053,41 16.938852,41 Z"></path>
                    </g>
                    <text id="RT" font-family="Archive" font-size="17.578125" font-weight="normal" letter-spacing="0.110104743" fill="#FFFFFF">
                        <tspan x="9.57153588" y="26.0480469">RT</tspan>
                    </text>
                </g>
            </g>
        </g>
    </g>
</svg>