

<svg width="284px" height="36px" viewBox="0 0 284 36" version="1.1" xmlns="http://www.w3.org/2000/svg" xmlns:xlink="http://www.w3.org/1999/xlink">
    <g id="Page-1" stroke="none" stroke-width="1" fill="none" fill-rule="evenodd">
        <g id="Desktop" transform="translate(-446.000000, -94.000000)" fill="#FFFFFF" fill-rule="nonzero">
            <path d="M463.215259,124.34964 L453.970027,119.848921 C451.615792,123.061407 450.299729,125.18129 450.021798,126.208633 C449.825612,126.94245 449.388287,127.558031 448.709809,128.055396 C448.031332,128.55276 447.544961,128.801439 447.250681,128.801439 C446.41689,128.801439 446,128.483456 446,127.847482 C446,127.488727 446.494545,126.457323 447.483651,124.753237 C448.472757,123.049152 449.833779,121.03934 451.566757,118.723741 C450.602175,118.332372 450.005451,118.071463 449.776567,117.941007 C449.547683,117.810551 449.457765,117.561872 449.506812,117.194964 C449.555859,116.828056 449.841959,116.253241 450.365123,115.470504 C450.822891,114.785608 451.166211,114.324941 451.395095,114.088489 C451.623979,113.852037 451.893731,113.664509 452.20436,113.525899 C452.514988,113.387289 452.84196,113.293525 453.185286,113.244604 C453.528612,113.195683 454.49318,113.073382 456.079019,112.877698 C457.370579,111.132845 458.772472,109.249411 460.284741,107.227338 C461.79701,105.205266 462.978197,103.63166 463.828338,102.506475 C461.261568,102.848923 459.471395,103.134291 458.457766,103.36259 C457.378741,103.574581 456.47548,103.749879 455.747956,103.888489 C455.020432,104.027099 454.509538,104.1494 454.215259,104.255396 C453.920979,104.361391 453.773842,104.512229 453.773842,104.707914 C453.773842,104.887291 453.953677,105.009592 454.313351,105.07482 C454.673026,105.140048 455.1267,105.172662 455.674387,105.172662 C456.222074,105.172662 456.647137,105.193045 456.949591,105.233813 C457.252045,105.274581 457.40327,105.368345 457.40327,105.515108 C457.40327,105.678178 457.202999,105.771942 456.802452,105.796403 C456.401905,105.820863 455.277938,105.873861 453.430518,105.955396 C452.384191,105.98801 451.505453,106.020623 450.794278,106.053237 C450.083103,106.085851 449.588557,106.102158 449.310627,106.102158 C448.934603,106.102158 448.640328,105.988011 448.427793,105.759712 C448.215258,105.531414 448.108992,105.229738 448.108992,104.854676 C448.108992,104.577457 448.264304,104.063793 448.574932,103.313669 C448.88556,102.563545 449.326973,101.80528 449.899183,101.038849 C450.471393,100.272418 451.125337,99.6772203 451.861035,99.2532374 C452.694827,98.7477193 453.990454,98.2381321 455.747956,97.7244604 C457.505458,97.2107888 459.459117,96.7949656 461.608992,96.4769784 C463.758866,96.1589912 465.888273,96 467.997275,96 C469.272486,96 470.519067,96.0733806 471.737057,96.2201439 C472.955047,96.3669072 474.058578,96.5462819 475.047684,96.7582734 C476.03679,96.9702648 476.817436,97.1822531 477.389646,97.3942446 C478.877392,97.8834557 480.017707,98.6254147 480.810627,99.6201439 C481.603546,100.614873 482,101.707428 482,102.897842 C482,104.055641 481.79973,105.184887 481.399183,106.285612 C480.998636,107.386336 480.385563,108.405511 479.559946,109.343165 C478.734328,110.28082 477.74115,111.043163 476.580381,111.630216 C475.632148,112.119427 474.19347,112.616784 472.264305,113.122302 C470.33514,113.62782 468.005463,114.076257 465.275204,114.467626 C462.544945,114.858995 459.49593,115.144364 456.128065,115.323741 C458.645789,116.204321 460.995902,117.088964 463.178474,117.977698 C465.361046,118.866431 467.200265,119.657311 468.696185,120.35036 C470.192106,121.043409 471.365118,121.61007 472.215259,122.05036 C473.408725,122.670027 474.185284,123.118464 474.544959,123.395683 C474.904634,123.672903 475.141689,124.031652 475.256131,124.471942 C475.370573,124.912232 475.427793,125.637885 475.427793,126.648921 C475.427793,127.790413 475.358311,128.63429 475.219346,129.180576 C475.080381,129.726861 474.782019,130 474.324251,130 C474.177111,130 473.788831,129.841009 473.159401,129.523022 C472.52997,129.205034 471.659406,128.740291 470.547684,128.128777 C469.435962,127.517263 468.426435,126.970986 467.519074,126.489928 C466.611712,126.00887 465.177122,125.295448 463.215259,124.34964 Z M464.800251,101.337264 C464.816164,101.458334 464.828099,101.570754 464.836055,101.674528 C464.844012,101.778302 464.84799,101.925314 464.84799,102.115566 C464.84799,102.599845 464.708753,103.157623 464.430276,103.788915 C464.151799,104.420208 463.793763,105.068786 463.356156,105.73467 C462.918549,106.400554 462.266127,107.351802 461.398869,108.588443 C460.531612,109.825085 459.731997,110.962259 459,112 C462.341725,111.308173 465.194084,110.642299 467.557161,110.002358 C469.920238,109.362418 471.86557,108.718164 473.393216,108.069575 C474.920862,107.420987 476.070557,106.737818 476.842337,106.020047 C477.614116,105.302276 478,104.554249 478,103.775943 C478,102.911159 477.192429,102.232314 475.577261,101.739387 C473.962094,101.24646 471.984936,101 469.645729,101 C469.168339,101 468.66311,101.012972 468.130025,101.038915 C467.59694,101.064859 466.960431,101.116745 466.220477,101.194575 C465.480524,101.272406 465.00712,101.319968 464.800251,101.337264 Z M488.758794,108 C488.340031,108 487.942213,107.855405 487.565327,107.56621 C487.18844,107.277015 487,106.911722 487,106.47032 C487,105.800605 487.351755,105.054799 488.055276,104.232877 C488.758797,103.410955 489.487433,103 490.241206,103 C490.743721,103 491.162477,103.14079 491.497487,103.422374 C491.832497,103.703959 492,104.111108 492,104.643836 C492,105.298329 491.65662,106.021305 490.969849,106.812785 C490.283079,107.604266 489.546068,108 488.758794,108 Z M490,118.642857 L490,120.52 C488.403284,122.662868 486.913587,124.278566 485.530864,125.367143 C484.148141,126.45572 482.971198,127 482,127 C480.650199,127 479.646094,126.262865 478.987654,124.788571 C478.329215,123.314278 478,121.702866 478,119.954286 C478,119.285711 478.065843,118.647146 478.197531,118.038571 C478.329219,117.429997 478.485596,116.928573 478.666667,116.534286 C478.847738,116.139998 479.185183,115.522861 479.679012,114.682857 C482.016473,110.894267 484.156369,109 486.098765,109 C487.102886,109 487.604938,109.402853 487.604938,110.208571 C487.604938,110.757146 487.279839,111.61428 486.62963,112.78 C485.979421,113.94572 485.39918,114.77714 484.888889,115.274286 C483.456783,116.714293 482.522636,117.71714 482.08642,118.282857 C481.650204,118.848574 481.432099,119.491425 481.432099,120.211429 C481.432099,120.828575 481.654319,121.342855 482.098765,121.754286 C482.543212,122.165716 483.119338,122.371429 483.82716,122.371429 C484.600827,122.371429 485.45267,122.075717 486.382716,121.484286 C487.312762,120.892854 488.518511,119.945721 490,118.642857 Z M507,118.813953 L507,120.372093 C505.141142,122.000008 503.625413,123.263561 502.452769,124.162791 C501.280124,125.06202 500.185673,125.759687 499.169381,126.255814 C498.153089,126.75194 497.158528,127 496.185668,127 C495.23018,127 494.352881,126.662794 493.553746,125.988372 C492.754611,125.31395 492.12921,124.430238 491.677524,123.337209 C491.225839,122.244181 491,121.085277 491,119.860465 C491,118.806196 491.260584,117.868221 491.781759,117.046512 C492.302934,116.224802 493.310525,115.162797 494.80456,113.860465 C496.576556,112.31007 498.222577,111.112407 499.742671,110.267442 C501.262765,109.422476 502.457107,109 503.325733,109 C503.951143,109 504.480997,109.193797 504.915309,109.581395 C505.349622,109.968994 505.566775,110.457361 505.566775,111.046512 C505.566775,111.542638 505.280133,112.248057 504.70684,113.162791 C504.133548,114.077524 503.490774,114.87209 502.778502,115.546512 C502.066229,116.220934 501.501631,116.55814 501.084691,116.55814 C500.633005,116.55814 500.407166,116.341087 500.407166,115.906977 C500.424539,115.782945 500.437568,115.666667 500.446254,115.55814 C500.45494,115.449612 500.459283,115.341086 500.459283,115.232558 C500.459283,115.046511 500.385451,114.941861 500.237785,114.918605 C500.090119,114.895349 499.912053,114.953488 499.703583,115.093023 C497.966332,116.1783 496.776333,116.941858 496.13355,117.383721 C495.490768,117.825584 494.982629,118.271316 494.609121,118.72093 C494.235612,119.170545 494.04886,119.643408 494.04886,120.139535 C494.04886,121.054268 494.378933,121.798447 495.039088,122.372093 C495.699243,122.945739 496.55917,123.232558 497.618893,123.232558 C498.713361,123.232558 500.029308,122.856593 501.566775,122.104651 C503.104242,121.352709 504.915299,120.255821 507,118.813953 Z M525.748466,119.234677 L525.748466,120.749276 C524.325146,122.17573 523.094075,123.341719 522.055215,124.247277 C521.016355,125.152835 520.108388,125.838004 519.331288,126.302804 C518.554188,126.767604 517.895708,127 517.355828,127 C516.079748,127 515.441718,126.262742 515.441718,124.788205 C515.441718,123.602164 515.838442,122.22782 516.631902,120.665131 C517.425362,119.102442 518.566455,117.263305 520.055215,115.147665 C519.319015,115.548354 518.623725,116.00914 517.969325,116.530037 C517.314925,117.050933 516.734154,117.595862 516.226994,118.164841 C515.719834,118.73382 515.29448,119.218647 514.95092,119.619337 C513.88752,120.78935 512.865036,121.987394 511.883436,123.213503 C510.901836,124.439613 510.239266,125.236973 509.895706,125.605608 C509.552146,125.974242 509.22495,126.158556 508.91411,126.158556 C507.63803,126.158556 507,124.619932 507,121.542637 C507,120.532899 507.155418,119.418999 507.466258,118.200903 C507.777098,116.982807 508.611445,115.37206 509.969325,113.368612 C512.832325,109.169387 515.282198,105.73553 517.319018,103.066938 C519.355838,100.398346 521.044983,98.3789012 522.386503,97.0085432 C523.728023,95.6381853 524.62781,94.9690439 525.08589,95.001099 C525.65849,95.0491818 526.120653,95.1613732 526.472393,95.3376765 C526.824133,95.5139799 527,95.7143216 527,95.9387077 C527,96.3393972 526.717794,97.0005249 526.153374,97.9221107 C525.588954,98.8436964 524.619639,100.28215 523.245399,102.237515 C521.756639,104.305072 520.701435,105.759553 520.079755,106.601001 C519.458075,107.442449 518.529659,108.636486 517.294479,110.183147 C516.059299,111.729808 514.930475,113.10816 513.907975,114.318242 C512.885475,115.528324 511.719843,116.838559 510.411043,118.248986 L510.411043,121.133936 C512.603283,118.745826 514.501014,116.790491 516.104294,115.267871 C517.707574,113.745251 519.065434,112.59529 520.177914,111.817952 C521.290394,111.040614 522.108382,110.651951 522.631902,110.651951 C523.122702,110.651951 523.580775,110.936437 524.006135,111.505416 C524.431495,112.074395 524.644172,112.543194 524.644172,112.911829 C524.644172,113.072105 524.562373,113.272446 524.398773,113.51286 C523.220853,114.891232 522.284257,116.03318 521.588957,116.938738 C520.893657,117.844296 520.357875,118.653677 519.981595,119.366904 C519.605315,120.080131 519.417178,120.693177 519.417178,121.206059 C519.417178,121.959355 519.785272,122.335998 520.521472,122.335998 C521.306752,122.335998 523.049066,121.302235 525.748466,119.234677 Z M529.137647,114.500629 C531.641189,112.301876 534.070576,110.668768 536.425882,109.601258 C538.781188,108.533747 540.60117,108 541.885882,108 C542.231766,108 542.55294,108.139412 542.849412,108.418239 C543.145884,108.697066 543.380587,109.019705 543.553529,109.386164 C543.726471,109.752622 543.812941,110.023479 543.812941,110.198742 C543.812941,110.485536 543.697648,110.696645 543.467059,110.832075 C543.236469,110.967506 542.832944,111.130817 542.256471,111.322013 C542.371765,111.57694 542.519999,111.903562 542.701176,112.301887 C542.882354,112.700212 543.022352,113.02285 543.121176,113.269811 C543.22,113.516773 543.269412,113.735848 543.269412,113.927044 C543.269412,114.309436 542.870004,115.022427 542.071176,116.066038 C541.272349,117.109649 540.712355,117.878404 540.391176,118.372327 C540.069998,118.86625 539.909412,119.471695 539.909412,120.188679 C539.909412,121.367721 540.469406,121.957233 541.589412,121.957233 C542.742359,121.957233 544.54587,120.913637 547,118.826415 L547,120.284277 C542.83292,124.761448 539.851774,127 538.056471,127 C537.414114,127 536.95706,126.796857 536.685294,126.390566 C536.413528,125.984275 536.277647,125.382813 536.277647,124.586164 C536.277647,123.327457 536.747054,121.503157 537.685882,119.113208 C535.281164,121.694353 533.494123,123.530603 532.324706,124.622013 C531.155288,125.713423 530.191768,126.259119 529.434118,126.259119 C529.071763,126.259119 528.618826,125.956397 528.075294,125.350943 C527.531762,124.74549 527.050002,123.960801 526.63,122.996855 C526.209998,122.032909 526,121.033129 526,119.997484 C526,119.248634 526.074117,118.623273 526.222353,118.121384 C526.370589,117.619494 526.658821,117.105663 527.087059,116.579874 C527.515296,116.054085 528.198819,115.361011 529.137647,114.500629 Z M542,113 C537.675654,114.956662 534.594604,116.617332 532.756757,117.982063 C530.91891,119.346793 530,120.752609 530,122.199552 C530,122.725713 530.091475,123.157323 530.274428,123.494395 C530.457381,123.831467 530.706859,124 531.022869,124 C531.205822,124 531.530143,123.884904 531.995842,123.654709 C533.742212,122.635271 535.33887,121.307557 536.785863,119.671525 C538.232855,118.035493 539.970884,115.811673 542,113 Z M549,121.353887 L549,119.785523 C549.941181,118.756027 550.655771,117.87936 551.143791,117.155496 C550.586054,116.978551 550.180829,116.761395 549.928105,116.504021 C549.67538,116.246648 549.54902,115.860592 549.54902,115.345845 C549.54902,114.766753 549.810455,114.034857 550.333333,113.150134 C550.856212,112.265411 551.501085,111.437001 552.267974,110.664879 C553.034862,109.892758 553.732023,109.394103 554.359477,109.168901 C554.603487,109.0563 554.838779,109 555.065359,109 C555.413945,109 555.588235,109.152813 555.588235,109.458445 C555.588235,109.731905 555.318085,110.286859 554.777778,111.123324 C558.36821,110.608577 560.633982,110.351206 561.575163,110.351206 C561.941178,110.351206 562.193899,110.383378 562.333333,110.447721 C562.629631,110.592494 562.873637,110.930292 563.065359,111.461126 C563.257082,111.99196 563.352941,112.522786 563.352941,113.053619 C563.352941,113.391423 563.191723,113.757371 562.869281,114.151475 C562.546839,114.545578 561.993468,115.12064 561.20915,115.876676 C560.285398,116.79357 559.509807,117.790879 558.882353,118.868633 C558.254899,119.946386 557.941176,120.75871 557.941176,121.30563 C557.941176,122.061666 558.446618,122.439678 559.457516,122.439678 C560.520702,122.439678 562.368179,121.442369 565,119.447721 L565,121.064343 C563.55337,122.463814 562.359482,123.56568 561.418301,124.369973 C560.477119,125.174267 559.605668,125.813671 558.803922,126.288204 C558.002175,126.762737 557.287585,127 556.660131,127 C555.928101,127 555.318085,126.690352 554.830065,126.071046 C554.342045,125.45174 554.098039,124.554966 554.098039,123.380697 C554.098039,122.689005 554.289758,121.900809 554.673203,121.016086 C555.056647,120.131363 555.618733,119.170246 556.359477,118.132708 C557.100222,117.095169 557.932457,116.061667 558.856209,115.032172 C558.368189,115.128687 557.819175,115.229222 557.20915,115.33378 C556.599125,115.438338 555.954252,115.546916 555.27451,115.659517 C554.594768,115.772119 554.071897,115.860589 553.705882,115.924933 C552.625267,117.919581 551.056655,119.729214 549,121.353887 Z M575.998972,118.372227 C574.491599,120.01562 573.142692,121.412484 571.95221,122.562859 C570.761728,123.713235 569.79394,124.571895 569.048818,125.138866 C568.303696,125.705837 567.794109,125.989318 567.520041,125.989318 C567.074681,125.989318 566.573658,125.644211 566.016958,124.953985 C565.460258,124.26376 564.984928,123.384558 564.590956,122.316352 C564.196983,121.248146 564,120.163522 564,119.062449 C564,117.468357 564.805062,115.861964 566.415211,114.243221 C568.025359,112.624478 569.85816,111.281024 571.913669,110.212818 C573.969178,109.144613 575.510786,108.610518 576.538541,108.610518 C577.377873,108.610518 578.200064,109.119962 579.005139,110.138866 C580.32409,107.493002 581.578788,105.142985 582.76927,103.088743 C583.959752,101.034501 584.957516,99.5061677 585.76259,98.5036976 C586.567664,97.5012275 587.141485,97 587.48407,97 C587.860913,97 588.207775,97.1766622 588.524666,97.5299918 C588.841557,97.8833214 589,98.2818384 589,98.7255546 C589,99.5801193 588.349099,101.046826 587.047276,103.125719 C585.745454,105.204612 584.460781,107.230064 583.193217,109.202136 C581.925653,111.174209 580.837963,113.117492 579.930113,115.032046 C579.022263,116.9466 578.568345,118.71733 578.568345,120.344289 C578.568345,121.823343 579.065086,122.562859 580.058582,122.562859 C580.658105,122.562859 581.41178,122.238294 582.31963,121.589154 C583.22748,120.940013 584.520718,119.851281 586.199383,118.322925 L586.199383,120.122432 C582.499468,124.7075 579.647492,127 577.643371,127 C576.838297,127 576.260194,126.704194 575.909044,126.112572 C575.557895,125.52095 575.382323,124.641748 575.382323,123.474938 C575.382323,121.897281 575.587871,120.196394 575.998972,118.372227 Z M579,113 C577.552838,113.519483 575.853668,114.354973 573.902439,115.506494 C571.95121,116.658014 570.77236,117.450214 570.365854,117.883117 C570.008128,118.229439 569.691058,118.878783 569.414634,119.831169 C569.13821,120.783555 569,121.502162 569,121.987013 C569,122.281387 569.0813,122.523809 569.243902,122.714286 C569.406505,122.904763 569.609755,123 569.853659,123 C570.081302,123 570.341462,122.896105 570.634146,122.688312 C570.926831,122.480518 571.394306,122.073596 572.036585,121.467532 C572.678865,120.861469 573.09756,120.471862 573.292683,120.298701 C573.569107,120.03896 574.182922,119.480524 575.134146,118.623377 C576.085371,117.766229 576.780486,117.095241 577.219512,116.61039 C577.658539,116.125539 578.032519,115.584419 578.341463,114.987013 C578.650408,114.389607 578.869918,113.727276 579,113 Z M620.408027,121.699238 L621.235786,122.305613 C621.018394,122.758376 620.809366,123.154537 620.608696,123.494109 C620.408026,123.833682 620.165553,124.246013 619.881271,124.731116 C619.596989,125.216219 619.379599,125.58004 619.229097,125.822592 C617.97491,127.940875 616.795992,129 615.692308,129 C615.224078,129 614.822744,128.822132 614.488294,128.466389 C614.153844,128.110647 613.986622,127.625552 613.986622,127.011088 C613.986622,126.137903 614.308525,124.941334 614.952341,123.421344 C615.596157,121.901355 616.59113,120.029695 617.937291,117.806306 C619.283452,115.582918 620.976578,113.064463 623.016722,110.250866 C625.056866,107.437269 627.356174,104.470101 629.914716,101.349272 C628.443136,101.139061 626.695662,101.033957 624.672241,101.033957 C622.347814,101.033957 619.760048,101.28459 616.908863,101.785863 C614.057678,102.287136 611.574425,102.865208 609.45903,103.520097 C607.343635,104.174986 606.285953,104.656039 606.285953,104.963271 C606.285953,105.076462 606.327759,105.153268 606.411371,105.193694 C606.494984,105.234119 606.632942,105.266459 606.825251,105.290714 C607.017559,105.314969 607.264213,105.343266 607.565217,105.375606 C609.521749,105.634328 610.5,105.925385 610.5,106.248787 C610.5,106.410488 610.073583,106.487295 609.220736,106.47921 C608.367889,106.471125 607.339471,106.467082 606.135452,106.467082 C605.182269,106.467082 604.492477,106.4307 604.066054,106.357935 C603.63963,106.285169 603.355352,106.147726 603.213211,105.945599 C603.07107,105.743473 603,105.432204 603,105.011781 C603,104.736889 603.083611,104.138605 603.250836,103.216909 C603.568563,101.502879 604.057689,100.128441 604.718227,99.0935551 C605.378766,98.0586689 606.390461,97.213794 607.753344,96.5589051 C609.116228,95.9040161 610.993299,95.3825383 613.384615,94.994456 C617.398013,94.331482 620.717378,94 623.342809,94 C625.282618,94 626.812703,94.0768068 627.93311,94.2304227 C629.053517,94.3840387 629.877088,94.6063742 630.403846,94.8974359 C630.930605,95.1884976 631.265049,95.4755126 631.407191,95.7584893 C631.549332,96.041466 631.737457,96.5306041 631.971572,97.2259182 L632.749164,99.4573805 C632.799331,99.6029113 632.841137,99.7201428 632.874582,99.8090783 C632.908027,99.8980138 632.937291,99.9909905 632.962375,100.088011 C632.987458,100.185032 633,100.273966 633,100.354816 C633,100.98545 632.85368,101.551395 632.561037,102.052668 C632.268393,102.553941 631.733281,103.305839 630.955686,104.308385 C630.17809,105.310931 629.605353,106.095169 629.237458,106.661123 C624.923055,113.436393 621.979941,118.449048 620.408027,121.699238 Z M645,119.063978 L645,120.741307 C643.854512,121.742703 642.934664,122.41029 642.240429,122.744089 C641.546194,123.077888 640.548245,123.211405 639.246554,123.144645 C636.99029,125.714895 635.003071,127 633.284839,127 C632.31291,127 631.427773,126.691241 630.629403,126.073713 C629.831032,125.456186 629.193213,124.613357 628.715926,123.545202 C628.23864,122.477046 628,121.283734 628,119.965229 C628,118.897074 628.368807,117.712107 629.106432,116.410292 C629.844057,115.108477 630.798616,113.894303 631.970138,112.767733 C633.14166,111.641163 634.395603,110.731575 635.732006,110.038943 C637.068409,109.346311 638.309336,109 639.454824,109 C640.27055,109 640.912708,109.121 641.381317,109.363004 C641.849926,109.605008 642.084227,109.942974 642.084227,110.376912 C642.084227,110.710711 641.884637,111.094574 641.485452,111.528512 C642.144975,111.662031 642.596221,111.88317 642.839204,112.191933 C643.082186,112.500697 643.203675,113.063974 643.203675,113.88178 C643.203675,114.682897 643.008425,115.692623 642.617917,116.910987 C642.22741,118.129352 641.693725,119.272595 641.016845,120.340751 L641.485452,120.791377 L641.875957,120.791377 C642.171007,120.791377 642.461714,120.720446 642.748086,120.578581 C643.034458,120.436717 643.290453,120.28651 643.51608,120.127955 C643.741706,119.969401 644.236341,119.614745 645,119.063978 Z M639,113 C637.797095,113.827694 636.76812,114.576746 635.913043,115.247178 C635.057967,115.917611 634.333336,116.59631 633.73913,117.283296 C633.144925,117.970282 632.746378,118.661396 632.543478,119.356659 C632.181158,121.210694 632,122.212189 632,122.361174 C632,123.45373 632.66666,124 634,124 C634.623192,124 635.666659,123.387516 637.130435,122.162528 C636.884057,121.384496 636.76087,120.639582 636.76087,119.927765 C636.76087,118.884871 636.949273,117.8213 637.326087,116.73702 C637.7029,115.652741 638.260866,114.40708 639,113 Z M645,121.353887 L645,119.785523 C645.941181,118.756027 646.655771,117.87936 647.143791,117.155496 C646.586054,116.978551 646.180829,116.761395 645.928105,116.504021 C645.67538,116.246648 645.54902,115.860592 645.54902,115.345845 C645.54902,114.766753 645.810455,114.034857 646.333333,113.150134 C646.856212,112.265411 647.501085,111.437001 648.267974,110.664879 C649.034862,109.892758 649.732023,109.394103 650.359477,109.168901 C650.603487,109.0563 650.838779,109 651.065359,109 C651.413945,109 651.588235,109.152813 651.588235,109.458445 C651.588235,109.731905 651.318085,110.286859 650.777778,111.123324 C654.36821,110.608577 656.633982,110.351206 657.575163,110.351206 C657.941178,110.351206 658.193899,110.383378 658.333333,110.447721 C658.629631,110.592494 658.873637,110.930292 659.065359,111.461126 C659.257082,111.99196 659.352941,112.522786 659.352941,113.053619 C659.352941,113.391423 659.191723,113.757371 658.869281,114.151475 C658.546839,114.545578 657.993468,115.12064 657.20915,115.876676 C656.285398,116.79357 655.509807,117.790879 654.882353,118.868633 C654.254899,119.946386 653.941176,120.75871 653.941176,121.30563 C653.941176,122.061666 654.446618,122.439678 655.457516,122.439678 C656.520702,122.439678 658.368179,121.442369 661,119.447721 L661,121.064343 C659.55337,122.463814 658.359482,123.56568 657.418301,124.369973 C656.477119,125.174267 655.605668,125.813671 654.803922,126.288204 C654.002175,126.762737 653.287585,127 652.660131,127 C651.928101,127 651.318085,126.690352 650.830065,126.071046 C650.342045,125.45174 650.098039,124.554966 650.098039,123.380697 C650.098039,122.689005 650.289758,121.900809 650.673203,121.016086 C651.056647,120.131363 651.618733,119.170246 652.359477,118.132708 C653.100222,117.095169 653.932457,116.061667 654.856209,115.032172 C654.368189,115.128687 653.819175,115.229222 653.20915,115.33378 C652.599125,115.438338 651.954252,115.546916 651.27451,115.659517 C650.594768,115.772119 650.071897,115.860589 649.705882,115.924933 C648.625267,117.919581 647.056655,119.729214 645,121.353887 Z M678,118.813953 L678,120.372093 C676.141142,122.000008 674.625413,123.263561 673.452769,124.162791 C672.280124,125.06202 671.185673,125.759687 670.169381,126.255814 C669.153089,126.75194 668.158528,127 667.185668,127 C666.23018,127 665.352881,126.662794 664.553746,125.988372 C663.754611,125.31395 663.12921,124.430238 662.677524,123.337209 C662.225839,122.244181 662,121.085277 662,119.860465 C662,118.806196 662.260584,117.868221 662.781759,117.046512 C663.302934,116.224802 664.310525,115.162797 665.80456,113.860465 C667.576556,112.31007 669.222577,111.112407 670.742671,110.267442 C672.262765,109.422476 673.457107,109 674.325733,109 C674.951143,109 675.480997,109.193797 675.915309,109.581395 C676.349622,109.968994 676.566775,110.457361 676.566775,111.046512 C676.566775,111.542638 676.280133,112.248057 675.70684,113.162791 C675.133548,114.077524 674.490774,114.87209 673.778502,115.546512 C673.066229,116.220934 672.501631,116.55814 672.084691,116.55814 C671.633005,116.55814 671.407166,116.341087 671.407166,115.906977 C671.424539,115.782945 671.437568,115.666667 671.446254,115.55814 C671.45494,115.449612 671.459283,115.341086 671.459283,115.232558 C671.459283,115.046511 671.385451,114.941861 671.237785,114.918605 C671.090119,114.895349 670.912053,114.953488 670.703583,115.093023 C668.966332,116.1783 667.776333,116.941858 667.13355,117.383721 C666.490768,117.825584 665.982629,118.271316 665.609121,118.72093 C665.235612,119.170545 665.04886,119.643408 665.04886,120.139535 C665.04886,121.054268 665.378933,121.798447 666.039088,122.372093 C666.699243,122.945739 667.55917,123.232558 668.618893,123.232558 C669.713361,123.232558 671.029308,122.856593 672.566775,122.104651 C674.104242,121.352709 675.915299,120.255821 678,118.813953 Z M681.137647,114.500629 C683.641189,112.301876 686.070576,110.668768 688.425882,109.601258 C690.781188,108.533747 692.60117,108 693.885882,108 C694.231766,108 694.55294,108.139412 694.849412,108.418239 C695.145884,108.697066 695.380587,109.019705 695.553529,109.386164 C695.726471,109.752622 695.812941,110.023479 695.812941,110.198742 C695.812941,110.485536 695.697648,110.696645 695.467059,110.832075 C695.236469,110.967506 694.832944,111.130817 694.256471,111.322013 C694.371765,111.57694 694.519999,111.903562 694.701176,112.301887 C694.882354,112.700212 695.022352,113.02285 695.121176,113.269811 C695.22,113.516773 695.269412,113.735848 695.269412,113.927044 C695.269412,114.309436 694.870004,115.022427 694.071176,116.066038 C693.272349,117.109649 692.712355,117.878404 692.391176,118.372327 C692.069998,118.86625 691.909412,119.471695 691.909412,120.188679 C691.909412,121.367721 692.469406,121.957233 693.589412,121.957233 C694.742359,121.957233 696.54587,120.913637 699,118.826415 L699,120.284277 C694.83292,124.761448 691.851774,127 690.056471,127 C689.414114,127 688.95706,126.796857 688.685294,126.390566 C688.413528,125.984275 688.277647,125.382813 688.277647,124.586164 C688.277647,123.327457 688.747054,121.503157 689.685882,119.113208 C687.281164,121.694353 685.494123,123.530603 684.324706,124.622013 C683.155288,125.713423 682.191768,126.259119 681.434118,126.259119 C681.071763,126.259119 680.618826,125.956397 680.075294,125.350943 C679.531762,124.74549 679.050002,123.960801 678.63,122.996855 C678.209998,122.032909 678,121.033129 678,119.997484 C678,119.248634 678.074117,118.623273 678.222353,118.121384 C678.370589,117.619494 678.658821,117.105663 679.087059,116.579874 C679.515296,116.054085 680.198819,115.361011 681.137647,114.500629 Z M693,113 C688.675654,114.956662 685.594604,116.617332 683.756757,117.982063 C681.91891,119.346793 681,120.752609 681,122.199552 C681,122.725713 681.091475,123.157323 681.274428,123.494395 C681.457381,123.831467 681.706859,124 682.022869,124 C682.205822,124 682.530143,123.884904 682.995842,123.654709 C684.742212,122.635271 686.33887,121.307557 687.785863,119.671525 C689.232855,118.035493 690.970884,115.811673 693,113 Z M707.398162,107.138915 L708.517611,107.138915 C709.437473,105.632406 710.270542,104.565972 711.016845,103.939581 C711.763148,103.313191 712.613574,103 713.568147,103 C714.52272,103 715,103.198222 715,103.594672 C715,103.784968 714.626854,104.300345 713.880551,105.140818 C713.134248,105.981292 712.570191,106.686962 712.188361,107.25785 C712.778461,107.321282 713.303469,107.376784 713.7634,107.424358 C714.223331,107.471932 714.58346,107.511576 714.843798,107.543292 C713.854513,109.224239 712.613586,110.944806 711.12098,112.705043 C710.635015,112.673327 710.227158,112.645576 709.897397,112.621789 C709.567635,112.598002 709.233539,112.574215 708.8951,112.550428 C708.55666,112.526641 708.144464,112.49889 707.658499,112.467174 C706.721282,113.846819 705.93594,115.07976 705.30245,116.166032 C704.668961,117.252305 704.183003,118.247379 703.844564,119.151284 C703.506124,120.05519 703.336907,120.911509 703.336907,121.720266 C703.336907,122.814468 703.814186,123.36156 704.76876,123.36156 C705.428283,123.36156 706.291725,123.040441 707.359112,122.398192 C708.426498,121.755944 709.853998,120.768798 711.641654,119.436727 L711.641654,121.030447 C706.955566,125.676839 703.49312,128 701.254211,128 C700.473197,128 699.844055,127.722489 699.366769,127.16746 C698.889482,126.61243 698.650842,125.898831 698.650842,125.026641 C698.650842,124.439896 698.785348,123.742154 699.054364,122.933397 C699.323381,122.124639 699.804999,120.903592 700.499234,119.270219 C700.256252,119.460515 700.02629,119.646843 699.809342,119.82921 C699.592393,120.011577 699.392803,120.178084 699.210567,120.328735 C699.02833,120.479385 698.833079,120.637963 698.624809,120.804472 C698.416538,120.970981 698.208271,121.141452 698,121.31589 L698,119.674596 C699.822367,118.279092 702.026531,115.829069 704.612557,112.324453 C704.352219,112.308595 704.109241,112.296702 703.883614,112.288773 C703.657988,112.280844 703.388976,112.276879 703.07657,112.276879 C702.052573,112.276879 701.288925,112.34031 700.785605,112.467174 C700.577334,112.514748 700.382084,112.566286 700.199847,112.621789 C700.01761,112.677292 699.891782,112.705043 699.822358,112.705043 C699.752935,112.705043 699.718224,112.65747 699.718224,112.562322 C699.718224,112.039008 700.074014,111.254049 700.785605,110.207422 C701.358349,109.319374 701.900712,108.661277 702.412711,108.233111 C702.924709,107.804946 703.549511,107.515542 704.287136,107.364891 C705.024761,107.21424 706.06176,107.138915 707.398162,107.138915 Z M730,119.063978 L730,120.741307 C728.854512,121.742703 727.934664,122.41029 727.240429,122.744089 C726.546194,123.077888 725.548245,123.211405 724.246554,123.144645 C721.99029,125.714895 720.003071,127 718.284839,127 C717.31291,127 716.427773,126.691241 715.629403,126.073713 C714.831032,125.456186 714.193213,124.613357 713.715926,123.545202 C713.23864,122.477046 713,121.283734 713,119.965229 C713,118.897074 713.368807,117.712107 714.106432,116.410292 C714.844057,115.108477 715.798616,113.894303 716.970138,112.767733 C718.14166,111.641163 719.395603,110.731575 720.732006,110.038943 C722.068409,109.346311 723.309336,109 724.454824,109 C725.27055,109 725.912708,109.121 726.381317,109.363004 C726.849926,109.605008 727.084227,109.942974 727.084227,110.376912 C727.084227,110.710711 726.884637,111.094574 726.485452,111.528512 C727.144975,111.662031 727.596221,111.88317 727.839204,112.191933 C728.082186,112.500697 728.203675,113.063974 728.203675,113.88178 C728.203675,114.682897 728.008425,115.692623 727.617917,116.910987 C727.22741,118.129352 726.693725,119.272595 726.016845,120.340751 L726.485452,120.791377 L726.875957,120.791377 C727.171007,120.791377 727.461714,120.720446 727.748086,120.578581 C728.034458,120.436717 728.290453,120.28651 728.51608,120.127955 C728.741706,119.969401 729.236341,119.614745 730,119.063978 Z M723,113 C721.797095,113.827694 720.76812,114.576746 719.913043,115.247178 C719.057967,115.917611 718.333336,116.59631 717.73913,117.283296 C717.144925,117.970282 716.746378,118.661396 716.543478,119.356659 C716.181158,121.210694 716,122.212189 716,122.361174 C716,123.45373 716.66666,124 718,124 C718.623192,124 719.666659,123.387516 721.130435,122.162528 C720.884057,121.384496 720.76087,120.639582 720.76087,119.927765 C720.76087,118.884871 720.949273,117.8213 721.326087,116.73702 C721.7029,115.652741 722.260866,114.40708 723,113 Z" id="RichardTorcato"></path>
        </g>
    </g>
</svg>