
<svg width="301px" height="31px" viewBox="0 0 301 31" version="1.1" xmlns="http://www.w3.org/2000/svg" xmlns:xlink="http://www.w3.org/1999/xlink">
    <g id="Page-1" stroke="none" stroke-width="1" fill="none" fill-rule="evenodd">
        <g id="Desktop" transform="translate(-446.000000, -165.000000)" fill="#FFFFFF" fill-rule="nonzero">
            <g id="RichardTorcato-2" transform="translate(446.173296, 165.480000)">
                <path d="M19.76,8.08 C19.7866668,8.346668 19.8133332,8.6266652 19.84,8.92 C19.8666668,9.2133348 19.88,9.5066652 19.88,9.8 C19.88,11.1600068 19.6666688,12.4799936 19.24,13.76 C18.8133312,15.0400064 18.1933374,16.179995 17.38,17.18 C16.5666626,18.180005 15.5733392,18.979997 14.4,19.58 C13.2266608,20.180003 11.906674,20.48 10.44,20.48 C9.5333288,20.48 8.6866706,20.346668 7.9,20.08 C7.1133294,19.813332 6.420003,19.4200026 5.82,18.9 C5.219997,18.3799974 4.7466684,17.7466704 4.4,17 C4.0533316,16.2533296 3.88,15.413338 3.88,14.48 C3.88,12.9599924 4.2199966,11.5466732 4.9,10.24 C5.5800034,8.9333268 6.486661,7.7400054 7.62,6.66 C8.753339,5.5799946 10.053326,4.6266708 11.52,3.8 C12.986674,2.9733292 14.4999922,2.2800028 16.06,1.72 C17.6200078,1.1599972 19.1866588,0.7333348 20.76,0.44 C22.3333412,0.1466652 23.7733268,0 25.08,0 C26.013338,0 26.8933292,0.0133332 27.72,0.04 C28.5466708,0.0666668 29.359996,0.1333328 30.16,0.24 C30.960004,0.3466672 31.759996,0.499999 32.56,0.7 C33.360004,0.900001 34.2133288,1.1599984 35.12,1.48 C36.0000044,1.1599984 36.8799956,0.8866678 37.76,0.66 C38.6400044,0.4333322 39.4666628,0.32 40.24,0.32 L40.24,0.64 C39.5199964,0.7466672 38.8066702,0.899999 38.1,1.1 C37.3933298,1.300001 36.7200032,1.5733316 36.08,1.92 C37.0666716,2.5066696 37.9133298,3.266662 38.62,4.2 C39.3266702,5.133338 39.68,6.199994 39.68,7.4 C39.68,8.73334 39.3600032,9.866662 38.72,10.8 C38.0799968,11.733338 37.260005,12.4933304 36.26,13.08 C35.259995,13.6666696 34.160006,14.0999986 32.96,14.38 C31.759994,14.6600014 30.6000056,14.8266664 29.48,14.88 L29.48,14.96 C30.280004,15.3066684 30.9933302,15.81333 31.62,16.48 C32.2466698,17.14667 32.56,17.9866616 32.56,19 C32.56,19.8266708 32.4333346,20.6533292 32.18,21.48 C31.9266654,22.3066708 31.6533348,23.1133294 31.36,23.9 C31.0666652,24.6866706 30.7933346,25.4399964 30.54,26.16 C30.2866654,26.8800036 30.16,27.5599968 30.16,28.2 C30.16,29.0266708 30.4666636,29.44 31.08,29.44 C31.8533372,29.44 32.773328,29.10667 33.84,28.44 C34.906672,27.77333 36.039994,26.840006 37.24,25.64 C37.8266696,25.0533304 38.3933306,24.4400032 38.94,23.8 C39.4866694,23.1599968 40.0066642,22.540003 40.5,21.94 C40.9933358,21.339997 41.4333314,20.773336 41.82,20.24 C42.2066686,19.706664 42.533332,19.2666684 42.8,18.92 L43.12,19.2 C42.45333,20.133338 41.6666712,21.1733276 40.76,22.32 C39.8533288,23.4666724 38.8933384,24.573328 37.88,25.64 C36.54666,27.0000068 35.2400064,28.0933292 33.96,28.92 C32.6799936,29.7466708 31.3333404,30.16 29.92,30.16 C28.9066616,30.16 28.1066696,29.8800028 27.52,29.32 C26.9333304,28.7599972 26.64,28.013338 26.64,27.08 C26.64,26.2266624 26.806665,25.333338 27.14,24.4 C27.473335,23.466662 27.839998,22.5466712 28.24,21.64 C28.640002,20.7333288 29.006665,19.8933372 29.34,19.12 C29.673335,18.3466628 29.84,17.7200024 29.84,17.24 C29.84,16.7333308 29.773334,16.3400014 29.64,16.06 C29.506666,15.7799986 29.3133346,15.5600008 29.06,15.4 C28.8066654,15.2399992 28.5066684,15.126667 28.16,15.06 C27.8133316,14.993333 27.4266688,14.9333336 27,14.88 L27.08,14.56 C27.480002,14.5866668 27.879998,14.5866668 28.28,14.56 C28.680002,14.5333332 29.1733304,14.4800004 29.76,14.4 C30.8800056,14.2399992 31.8466626,13.860003 32.66,13.26 C33.4733374,12.659997 34.1399974,11.9800038 34.66,11.22 C35.1800026,10.4599962 35.5599988,9.6733374 35.8,8.86 C36.0400012,8.0466626 36.16,7.3466696 36.16,6.76 C36.16,5.9066624 36.0400012,5.1866696 35.8,4.6 C35.5599988,4.0133304 35.1333364,3.4266696 34.52,2.84 C32.786658,4.0933396 31.2800064,5.6333242 30,7.46 C28.7199936,9.2866758 27.513339,11.2066566 26.38,13.22 C25.246661,15.2333434 24.113339,17.2333234 22.98,19.22 C21.846661,21.2066766 20.546674,22.9933254 19.08,24.58 C17.613326,26.1666746 15.913343,27.4533284 13.98,28.44 C12.046657,29.4266716 9.7066804,29.92 6.96,29.92 C6.2133296,29.92 5.4266708,29.8266676 4.6,29.64 C3.7733292,29.4533324 3.0200034,29.1533354 2.34,28.74 C1.6599966,28.3266646 1.1000022,27.7933366 0.66,27.14 C0.2199978,26.4866634 0,25.7066712 0,24.8 C0,24.0533296 0.2066646,23.3933362 0.62,22.82 C1.0333354,22.2466638 1.5599968,21.96 2.2,21.96 C2.733336,21.96 3.2133312,22.1199984 3.64,22.44 C4.0666688,22.7600016 4.28,23.1999972 4.28,23.76 C4.28,24.293336 4.146668,24.7133318 3.88,25.02 C3.613332,25.3266682 3.2266692,25.5066664 2.72,25.56 C2.72,26.9733404 3.0999962,27.9733304 3.86,28.56 C4.6200038,29.1466696 5.6533268,29.44 6.96,29.44 C8.4533408,29.44 9.7866608,29.1200032 10.96,28.48 C12.1333392,27.8399968 13.2266616,26.9800054 14.24,25.9 C15.2533384,24.8199946 16.1999956,23.5733404 17.08,22.16 C17.9600044,20.7466596 18.8399956,19.2666744 19.72,17.72 C20.6000044,16.1733256 21.506662,14.6133412 22.44,13.04 C23.373338,11.4666588 24.3866612,9.9733404 25.48,8.56 C26.5733388,7.1466596 27.7799934,5.873339 29.1,4.74 C30.4200066,3.606661 31.9066584,2.70667 33.56,2.04 C32.89333,1.6933316 32.1800038,1.4133344 31.42,1.2 C30.6599962,0.9866656 29.913337,0.8266672 29.18,0.72 C28.446663,0.6133328 27.7533366,0.5466668 27.1,0.52 C26.4466634,0.4933332 25.8800024,0.48 25.4,0.48 C23.3199896,0.48 21.1866776,0.8266632 19,1.52 C16.8133224,2.2133368 14.8266756,3.193327 13.04,4.46 C11.2533244,5.726673 9.7866724,7.2466578 8.64,9.02 C7.4933276,10.7933422 6.92,12.7599892 6.92,14.92 C6.92,16.3600072 7.3333292,17.5266622 8.16,18.42 C8.9866708,19.3133378 10.133326,19.76 11.6,19.76 C12.7466724,19.76 13.7933286,19.4533364 14.74,18.84 C15.6866714,18.2266636 16.5066632,17.4466714 17.2,16.5 C17.8933368,15.5533286 18.4333314,14.513339 18.82,13.38 C19.2066686,12.246661 19.4,11.146672 19.4,10.08 C19.4,9.8399988 19.3933334,9.5466684 19.38,9.2 C19.3666666,8.8533316 19.3466668,8.4933352 19.32,8.12 L19.76,8.08 Z M49.0595605,15.44 C47.8062209,17.4133432 46.7262317,19.099993 45.8195605,20.5 C44.9128893,21.900007 44.1728967,23.0933284 43.5995605,24.08 C43.0262243,25.0666716 42.5995619,25.8733302 42.3195605,26.5 C42.0395591,27.1266698 41.8995605,27.639998 41.8995605,28.04 C41.8995605,28.3600016 41.9595599,28.619999 42.0795605,28.82 C42.1995611,29.020001 42.3795593,29.12 42.6195605,29.12 C43.1528965,29.12 43.9062223,28.8133364 44.8795605,28.2 C45.8528987,27.5866636 47.0728865,26.5333408 48.5395605,25.04 C49.1262301,24.4266636 49.6995577,23.820003 50.2595605,23.22 C50.8195633,22.619997 51.3462247,22.0400028 51.8395605,21.48 C52.3328963,20.9199972 52.7728919,20.4133356 53.1595605,19.96 C53.5462291,19.5066644 53.8595593,19.146668 54.0995605,18.88 L54.4595605,19.12 C54.1395589,19.5466688 53.7462295,20.0333306 53.2795605,20.58 C52.8128915,21.1266694 52.3128965,21.699997 51.7795605,22.3 C51.2462245,22.900003 50.6995633,23.4933304 50.1395605,24.08 C49.5795577,24.6666696 49.0328965,25.226664 48.4995605,25.76 C46.9528861,27.3066744 45.6262327,28.3866636 44.5195605,29 C43.4128883,29.6133364 42.3928985,29.92 41.4595605,29.92 C40.5795561,29.92 39.8995629,29.6800024 39.4195605,29.2 C38.9395581,28.7199976 38.6995605,28.0933372 38.6995605,27.32 C38.6995605,26.786664 38.7995595,26.2333362 38.9995605,25.66 C39.1995615,25.0866638 39.5395581,24.3733376 40.0195605,23.52 C40.4995629,22.6666624 41.1395565,21.606673 41.9395605,20.34 C42.7395645,19.073327 43.7395545,17.506676 44.9395605,15.64 L49.0595605,15.44 Z M51.3795605,6.56 C51.8862297,6.56 52.3328919,6.7466648 52.7195605,7.12 C53.1062291,7.4933352 53.2995605,7.9333308 53.2995605,8.44 C53.2995605,8.973336 53.0862293,9.4599978 52.6595605,9.9 C52.2328917,10.3400022 51.7528965,10.56 51.2195605,10.56 C50.6328909,10.56 50.1262293,10.4066682 49.6995605,10.1 C49.2728917,9.7933318 49.0595605,9.3333364 49.0595605,8.72 C49.0595605,8.1066636 49.2928915,7.5933354 49.7595605,7.18 C50.2262295,6.7666646 50.7662241,6.56 51.3795605,6.56 Z M71.6391209,19.2 C70.6524493,20.400006 69.5857933,21.6466602 68.4391209,22.94 C67.2924485,24.2333398 66.0591275,25.413328 64.7391209,26.48 C63.4191143,27.546672 62.0057951,28.4266632 60.4991209,29.12 C58.9924467,29.8133368 57.3991293,30.16 55.7191209,30.16 C54.1191129,30.16 52.8924585,29.726671 52.0391209,28.86 C51.1857833,27.993329 50.7591209,26.7200084 50.7591209,25.04 C50.7591209,23.7599936 51.1324505,22.5066728 51.8791209,21.28 C52.6257913,20.0533272 53.5857817,18.9600048 54.7591209,18 C55.9324601,17.0399952 57.2257805,16.2666696 58.6391209,15.68 C60.0524613,15.0933304 61.4257809,14.8 62.7591209,14.8 C63.9857937,14.8 64.9591173,15.0466642 65.6791209,15.54 C66.3991245,16.0333358 66.7591209,16.6399964 66.7591209,17.36 C66.7591209,17.8666692 66.6591219,18.3266646 66.4591209,18.74 C66.2591199,19.1533354 65.9991225,19.4999986 65.6791209,19.78 C65.3591193,20.0600014 64.9991229,20.2733326 64.5991209,20.42 C64.1991189,20.5666674 63.7991229,20.64 63.3991209,20.64 C63.0524525,20.64 62.7457889,20.6133336 62.4791209,20.56 C62.6657885,19.9466636 62.8657865,19.3200032 63.0791209,18.68 C63.2924553,18.0399968 63.3991209,17.4000032 63.3991209,16.76 C63.3991209,16.3066644 63.2924553,15.946668 63.0791209,15.68 C62.8657865,15.413332 62.5724561,15.28 62.1991209,15.28 C61.5057841,15.28 60.7191253,15.5533306 59.8391209,16.1 C58.9591165,16.6466694 58.1324581,17.3799954 57.3591209,18.3 C56.5857837,19.2200046 55.9324569,20.2733274 55.3991209,21.46 C54.8657849,22.6466726 54.5991209,23.8799936 54.5991209,25.16 C54.5991209,26.1733384 54.9057845,27.0333298 55.5191209,27.74 C56.1324573,28.4466702 56.9857821,28.8 58.0791209,28.8 C59.3857941,28.8 60.6857811,28.4400036 61.9791209,27.72 C63.2724607,26.9999964 64.4991151,26.1266718 65.6591209,25.1 C66.8191267,24.0733282 67.8791161,23.0066722 68.8391209,21.9 C69.7991257,20.7933278 70.6124509,19.840004 71.2791209,19.04 L71.6391209,19.2 Z M64.5386814,29.52 L81.2986814,1.88 L85.6586814,1.68 L72.3786814,22.64 L72.4586814,22.72 C73.045351,22.0266632 73.7053444,21.2200046 74.4386814,20.3 C75.1720184,19.3799954 75.9720104,18.5133374 76.8386814,17.7 C77.7053524,16.8866626 78.6186766,16.2000028 79.5786814,15.64 C80.5386862,15.0799972 81.5386762,14.8 82.5786814,14.8 C83.432019,14.8 84.098679,15.0199978 84.5786814,15.46 C85.0586838,15.9000022 85.2986814,16.5599956 85.2986814,17.44 C85.2986814,18.1600036 85.005351,19.0066618 84.4186814,19.98 C83.8320118,20.9533382 83.1920182,21.9466616 82.4986814,22.96 C81.8053446,23.9733384 81.165351,24.946662 80.5786814,25.88 C79.9920118,26.813338 79.6986814,27.5999968 79.6986814,28.24 C79.6986814,28.8800032 79.9786786,29.2 80.5386814,29.2 C80.9386834,29.2 81.445345,29.0066686 82.0586814,28.62 C82.6720178,28.2333314 83.3320112,27.7333364 84.0386814,27.12 C84.7453516,26.5066636 85.4653444,25.8133372 86.1986814,25.04 C86.9320184,24.2666628 87.638678,23.5000038 88.3186814,22.74 C88.9986848,21.9799962 89.6053454,21.26667 90.1386814,20.6 C90.6720174,19.93333 91.0853466,19.400002 91.3786814,19 L91.6186814,19.24 C90.9253446,20.1466712 90.0920196,21.1866608 89.1186814,22.36 C88.1453432,23.5333392 87.1253534,24.6666612 86.0586814,25.76 C84.6186742,27.2533408 83.3920198,28.3199968 82.3786814,28.96 C81.365343,29.6000032 80.3253534,29.92 79.2586814,29.92 C78.2986766,29.92 77.5986836,29.6400028 77.1586814,29.08 C76.7186792,28.5199972 76.4986814,27.8800036 76.4986814,27.16 C76.4986814,26.226662 76.7920118,25.2866714 77.3786814,24.34 C77.965351,23.3933286 78.6053446,22.4666712 79.2986814,21.56 C79.9920182,20.6533288 80.6320118,19.800004 81.2186814,19 C81.805351,18.199996 82.0986814,17.5066696 82.0986814,16.92 C82.0986814,16.5466648 81.9920158,16.260001 81.7786814,16.06 C81.565347,15.859999 81.3253494,15.76 81.0586814,15.76 C80.4720118,15.76 79.8120184,16.0066642 79.0786814,16.5 C78.3453444,16.9933358 77.5720188,17.6333294 76.7586814,18.42 C75.945344,19.2066706 75.1320188,20.099995 74.3186814,21.1 C73.505344,22.100005 72.7320184,23.099995 71.9986814,24.1 C71.2653444,25.100005 70.6120176,26.066662 70.0386814,27 C69.4653452,27.933338 69.0053498,28.73333 68.6586814,29.4 L64.5386814,29.52 Z M103.798242,15.68 L107.958242,15.44 C107.718241,15.9200024 107.371577,16.4999966 106.918242,17.18 C106.464906,17.8600034 105.971578,18.5933294 105.438242,19.38 C104.904906,20.1666706 104.364911,20.9799958 103.818242,21.82 C103.271572,22.6600042 102.771577,23.4733294 102.318242,24.26 C101.864906,25.0466706 101.498243,25.7799966 101.218242,26.46 C100.93824,27.1400034 100.798242,27.7199976 100.798242,28.2 C100.798242,28.86667 101.131572,29.2 101.798242,29.2 C102.438245,29.2 103.304903,28.8266704 104.398242,28.08 C105.491581,27.3333296 106.638236,26.3466728 107.838242,25.12 C108.344911,24.6133308 108.858239,24.0666696 109.378242,23.48 C109.898244,22.8933304 110.398239,22.3133362 110.878242,21.74 C111.358244,21.1666638 111.79824,20.6333358 112.198242,20.14 C112.598244,19.6466642 112.918241,19.2400016 113.158242,18.92 L113.438242,19.08 C112.744905,20.013338 111.944913,21.046661 111.038242,22.18 C110.131571,23.313339 109.038248,24.5199936 107.758242,25.8 C106.478235,27.0800064 105.218248,28.1266626 103.978242,28.94 C102.738236,29.7533374 101.504915,30.16 100.278242,30.16 C99.4249043,30.16 98.7649109,29.9400022 98.2982419,29.5 C97.8315729,29.0599978 97.5982419,28.5200032 97.5982419,27.88 C97.5982419,27.6666656 97.6115751,27.4666676 97.6382419,27.28 C97.6649087,27.0933324 97.7049083,26.9466672 97.7582419,26.84 L97.6782419,26.84 C96.8515711,27.773338 95.9182471,28.5599968 94.8782419,29.2 C93.8382367,29.8400032 92.7182479,30.16 91.5182419,30.16 C90.8782387,30.16 90.3315775,30.0400012 89.8782419,29.8 C89.4249063,29.5599988 89.0582433,29.2333354 88.7782419,28.82 C88.4982405,28.4066646 88.2915759,27.9400026 88.1582419,27.42 C88.0249079,26.8999974 87.9582419,26.3600028 87.9582419,25.8 C87.9582419,24.4933268 88.3182383,23.1866732 89.0382419,21.88 C89.7582455,20.5733268 90.6649031,19.3933386 91.7582419,18.34 C92.8515807,17.2866614 94.0715685,16.4333366 95.4182419,15.78 C96.7649153,15.1266634 98.0515691,14.8 99.2782419,14.8 C100.21158,14.8 100.944906,14.999998 101.478242,15.4 C102.011578,15.800002 102.451573,16.4266624 102.798242,17.28 L103.798242,15.68 Z M91.7982419,25.92 C91.7982419,26.6933372 91.9249073,27.3666638 92.1782419,27.94 C92.4315765,28.5133362 92.9715711,28.8 93.7982419,28.8 C94.3582447,28.7733332 94.9449055,28.5400022 95.5582419,28.1 C96.1715783,27.6599978 96.7649057,27.10667 97.3382419,26.44 C97.9115781,25.77333 98.4582393,25.0333374 98.9782419,24.22 C99.4982445,23.4066626 99.9515733,22.5866708 100.338242,21.76 C100.72491,20.9333292 101.031574,20.153337 101.258242,19.42 C101.48491,18.686663 101.598242,18.0666692 101.598242,17.56 C101.598242,16.8399964 101.46491,16.280002 101.198242,15.88 C100.931574,15.479998 100.411579,15.28 99.6382419,15.28 C99.0249055,15.28 98.4049117,15.4666648 97.7782419,15.84 C97.1515721,16.2133352 96.5515781,16.7066636 95.9782419,17.32 C95.4049057,17.9333364 94.8582445,18.6199962 94.3382419,19.38 C93.8182393,20.1400038 93.3715771,20.919996 92.9982419,21.72 C92.6249067,22.520004 92.3315763,23.286663 92.1182419,24.02 C91.9049075,24.753337 91.7982419,25.386664 91.7982419,25.92 Z M106.457802,29.52 C107.817809,27.1733216 109.197795,24.8400116 110.597802,22.52 C111.997809,20.1999884 113.391129,17.840012 114.777802,15.44 L119.337802,15.28 L114.057802,22.72 L114.137802,22.8 C115.151141,21.5466604 116.051132,20.5400038 116.837802,19.78 C117.624473,19.0199962 118.311133,18.4000024 118.897802,17.92 C119.484472,17.4399976 119.9778,17.0733346 120.377802,16.82 C120.777804,16.5666654 121.071135,16.3466676 121.257802,16.16 C121.551137,15.8666652 121.824468,15.6333342 122.077802,15.46 C122.331137,15.2866658 122.631134,15.1533338 122.977802,15.06 C123.324471,14.9666662 123.744467,14.9066668 124.237802,14.88 C124.731138,14.8533332 125.351132,14.8266668 126.097802,14.8 C125.591133,15.5200036 125.124471,16.2733294 124.697802,17.06 C124.271134,17.8466706 124.057802,18.6933288 124.057802,19.6 C124.057802,20.7466724 124.63113,21.32 125.777802,21.32 C126.151138,21.32 126.517801,21.2400008 126.877802,21.08 C127.237804,20.9199992 127.577801,20.7200012 127.897802,20.48 C128.217804,20.2399988 128.524468,19.9800014 128.817802,19.7 C129.111137,19.4199986 129.377801,19.1600012 129.617802,18.92 L129.777802,19.12 C129.031132,20.053338 128.151141,20.8133304 127.137802,21.4 C126.124464,21.9866696 125.017808,22.28 123.817802,22.28 C122.75113,22.28 121.911139,22.0000028 121.297802,21.44 C120.684466,20.8799972 120.377802,20.0533388 120.377802,18.96 C120.377802,18.2666632 120.5778,17.6133364 120.977802,17 L120.897802,16.92 C119.777797,17.6666704 118.711141,18.5333284 117.697802,19.52 C116.684464,20.5066716 115.744473,21.5466612 114.877802,22.64 C114.011131,23.7333388 113.211139,24.8599942 112.477802,26.02 C111.744465,27.1800058 111.084472,28.3066612 110.497802,29.4 L106.457802,29.52 Z M150.557363,1.92 L155.037363,1.68 C154.157358,3.1200072 153.150702,4.7133246 152.017363,6.46 C150.884024,8.2066754 149.724035,9.9866576 148.537363,11.8 C147.35069,13.6133424 146.184035,15.4066578 145.037363,17.18 C143.89069,18.9533422 142.870701,20.5933258 141.977363,22.1 C141.084025,23.6066742 140.364032,24.9199944 139.817363,26.04 C139.270693,27.1600056 138.997363,27.9733308 138.997363,28.48 C138.997363,28.7733348 139.064029,29.0066658 139.197363,29.18 C139.330697,29.3533342 139.544028,29.44 139.837363,29.44 C140.397366,29.44 141.164025,29.1600028 142.137363,28.6 C143.110701,28.0399972 144.197357,27.1333396 145.397363,25.88 C146.384034,24.8666616 147.330692,23.8200054 148.237363,22.74 C149.144034,21.6599946 150.130691,20.4133404 151.197363,19 L151.597363,19.2 C151.304028,19.600002 150.950698,20.066664 150.537363,20.6 C150.124027,21.133336 149.677365,21.6933304 149.197363,22.28 C148.71736,22.8666696 148.217365,23.459997 147.697363,24.06 C147.17736,24.660003 146.664032,25.226664 146.157363,25.76 C144.877356,27.09334 143.650702,28.159996 142.477363,28.96 C141.304024,29.760004 140.050703,30.16 138.717363,30.16 C138.104026,30.16 137.604031,30.060001 137.217363,29.86 C136.830694,29.659999 136.524031,29.4000016 136.297363,29.08 C136.070695,28.7599984 135.930696,28.4133352 135.877363,28.04 C135.824029,27.6666648 135.837362,27.3066684 135.917363,26.96 L135.837363,26.88 C135.010692,27.7333376 134.104034,28.4533304 133.117363,29.04 C132.130691,29.6266696 130.997369,29.92 129.717363,29.92 C129.07736,29.92 128.537365,29.8066678 128.097363,29.58 C127.657361,29.3533322 127.297364,29.0466686 127.017363,28.66 C126.737361,28.2733314 126.537363,27.8333358 126.417363,27.34 C126.297362,26.8466642 126.237363,26.333336 126.237363,25.8 C126.237363,24.46666 126.584026,23.1400066 127.277363,21.82 C127.9707,20.4999934 128.864024,19.3200052 129.957363,18.28 C131.050702,17.2399948 132.264023,16.4000032 133.597363,15.76 C134.930703,15.1199968 136.25069,14.8 137.557363,14.8 C139.344038,14.8 140.544026,15.6533248 141.157363,17.36 L150.557363,1.92 Z M132.037363,28.56 C132.8907,28.56 133.777358,28.1533374 134.697363,27.34 C135.617367,26.5266626 136.457359,25.5400058 137.217363,24.38 C137.977367,23.2199942 138.59736,22.0133396 139.077363,20.76 C139.557365,19.5066604 139.797363,18.4266712 139.797363,17.52 C139.797363,16.7466628 139.597365,16.1800018 139.197363,15.82 C138.797361,15.4599982 138.290699,15.28 137.677363,15.28 C136.850692,15.28 135.990701,15.6599962 135.097363,16.42 C134.204025,17.1800038 133.384033,18.1066612 132.637363,19.2 C131.890692,20.2933388 131.277365,21.4666604 130.797363,22.72 C130.31736,23.9733396 130.077363,25.0933284 130.077363,26.08 C130.077363,26.7200032 130.224028,27.2933308 130.517363,27.8 C130.810698,28.3066692 131.317359,28.56 132.037363,28.56 Z M183.276484,7.72 C183.356484,8.0933352 183.40315,8.4599982 183.416484,8.82 C183.429817,9.1800018 183.436484,9.5466648 183.436484,9.92 C183.436484,11.0666724 183.14982,12.1666614 182.576484,13.22 C182.003148,14.2733386 181.236489,15.199996 180.276484,16 C179.316479,16.800004 178.203157,17.4399976 176.936484,17.92 C175.669811,18.4000024 174.343157,18.64 172.956484,18.64 C172.15648,18.64 171.363154,18.5200012 170.576484,18.28 C169.789813,18.0399988 169.096487,17.6800024 168.496484,17.2 C167.896481,16.7199976 167.409819,16.113337 167.036484,15.38 C166.663149,14.646663 166.476484,13.7866716 166.476484,12.8 C166.476484,11.2266588 166.943146,9.8466726 167.876484,8.66 C168.809822,7.4733274 170.02981,6.4533376 171.536484,5.6 C173.043158,4.7466624 174.749808,4.0400028 176.656484,3.48 C178.56316,2.9199972 180.476474,2.4800016 182.396484,2.16 C184.316493,1.8399984 186.156475,1.613334 187.916484,1.48 C189.676493,1.346666 191.183144,1.28 192.436484,1.28 C193.609823,1.28 194.803144,1.2999998 196.016484,1.34 C197.229823,1.3800002 198.376478,1.4266664 199.456484,1.48 C200.536489,1.5333336 201.523146,1.5866664 202.416484,1.64 C203.309822,1.6933336 204.023148,1.7333332 204.556484,1.76 C205.276487,1.7866668 205.789816,1.933332 206.096484,2.2 C206.403152,2.466668 206.556484,2.799998 206.556484,3.2 C206.556484,3.6266688 206.303153,3.9866652 205.796484,4.28 C205.289815,4.5733348 204.489823,4.72 203.396484,4.72 C202.383145,4.72 201.456488,4.6933336 200.616484,4.64 C199.77648,4.5866664 199.009821,4.56 198.316484,4.56 C197.009811,4.56 195.816489,4.9999956 194.736484,5.88 C193.656478,6.7600044 192.629822,7.8933264 191.656484,9.28 C190.683146,10.6666736 189.736488,12.2133248 188.816484,13.92 C187.896479,15.6266752 186.943155,17.3066584 185.956484,18.96 C184.943145,20.6666752 183.869823,22.1933266 182.736484,23.54 C181.603145,24.8866734 180.37649,26.0333286 179.056484,26.98 C177.736477,27.9266714 176.303158,28.6533308 174.756484,29.16 C173.209809,29.6666692 171.50316,29.92 169.636484,29.92 C168.809813,29.92 167.916489,29.8333342 166.956484,29.66 C165.996479,29.4866658 165.103155,29.1933354 164.276484,28.78 C163.449813,28.3666646 162.756487,27.8133368 162.196484,27.12 C161.636481,26.4266632 161.356484,25.5600052 161.356484,24.52 C161.356484,23.7733296 161.589815,23.133336 162.056484,22.6 C162.523153,22.066664 163.143147,21.8 163.916484,21.8 C164.583154,21.8 165.083149,21.9599984 165.416484,22.28 C165.749819,22.6000016 165.916484,23.0399972 165.916484,23.6 C165.916484,24.133336 165.776485,24.5466652 165.496484,24.84 C165.216482,25.1333348 164.849819,25.346666 164.396484,25.48 C164.503151,26.81334 164.97648,27.8066634 165.816484,28.46 C166.656488,29.1133366 167.969808,29.44 169.756484,29.44 C171.489826,29.44 173.023144,29.0200042 174.356484,28.18 C175.689824,27.3399958 176.896478,26.2733398 177.976484,24.98 C179.056489,23.6866602 180.043146,22.2533412 180.936484,20.68 C181.829822,19.1066588 182.689813,17.6000072 183.516484,16.16 C184.449822,14.5333252 185.33648,13.1000062 186.176484,11.86 C187.016488,10.6199938 187.923146,9.533338 188.896484,8.6 C189.869822,7.666662 190.969811,6.8600034 192.196484,6.18 C193.423157,5.4999966 194.889809,4.9066692 196.596484,4.4 L196.596484,4.32 C196.196482,4.2666664 195.696487,4.2200002 195.096484,4.18 C194.496481,4.1399998 193.843154,4.1066668 193.136484,4.08 C192.429814,4.0533332 191.703154,4.0333334 190.956484,4.02 C190.209813,4.0066666 189.516487,4 188.876484,4 C187.223142,4 185.529826,4.0599994 183.796484,4.18 C182.063142,4.3000006 180.383159,4.4866654 178.756484,4.74 C177.129809,4.9933346 175.603158,5.3399978 174.176484,5.78 C172.74981,6.2200022 171.496489,6.7533302 170.416484,7.38 C169.336478,8.0066698 168.48982,8.7399958 167.876484,9.58 C167.263147,10.4200042 166.956484,11.3866612 166.956484,12.48 C166.956484,13.2000036 167.156482,13.8399972 167.556484,14.4 C167.956486,14.9600028 168.463147,15.4199982 169.076484,15.78 C169.68982,16.1400018 170.369813,16.4133324 171.116484,16.6 C171.863154,16.7866676 172.59648,16.88 173.316484,16.88 C174.383156,16.88 175.483145,16.7266682 176.616484,16.42 C177.749823,16.1133318 178.789812,15.660003 179.736484,15.06 C180.683155,14.459997 181.456481,13.693338 182.056484,12.76 C182.656487,11.826662 182.956484,10.7466728 182.956484,9.52 C182.956484,8.9333304 182.916484,8.3466696 182.836484,7.76 L183.276484,7.72 Z M212.576044,19.16 C212.042708,19.8533368 211.409381,20.4799972 210.676044,21.04 C209.942707,21.6000028 209.136049,21.88 208.256044,21.88 C207.642708,21.88 207.10938,21.746668 206.656044,21.48 C206.202709,21.213332 205.789379,20.8400024 205.416044,20.36 C205.096043,21.69334 204.569381,22.9533274 203.836044,24.14 C203.102707,25.3266726 202.216049,26.3666622 201.176044,27.26 C200.136039,28.1533378 198.976051,28.8599974 197.696044,29.38 C196.416038,29.9000026 195.082718,30.16 193.696044,30.16 C192.22937,30.16 191.056049,29.7400042 190.176044,28.9 C189.29604,28.0599958 188.856044,26.906674 188.856044,25.44 C188.856044,24.0266596 189.216041,22.6733398 189.936044,21.38 C190.656048,20.0866602 191.589372,18.9533382 192.736044,17.98 C193.882717,17.0066618 195.149371,16.2333362 196.536044,15.66 C197.922718,15.0866638 199.282704,14.8 200.616044,14.8 C202.056051,14.8 203.189373,15.1866628 204.016044,15.96 C204.842715,16.7333372 205.349377,17.6666612 205.536044,18.76 C205.669378,19.560004 205.969375,20.1999976 206.436044,20.68 C206.902713,21.1600024 207.509374,21.4 208.256044,21.4 C208.976048,21.4 209.656041,21.1866688 210.296044,20.76 C210.936047,20.3333312 211.616041,19.6933376 212.336044,18.84 L212.576044,19.16 Z M193.976044,29.68 C194.642714,29.68 195.309374,29.4533356 195.976044,29 C196.642714,28.5466644 197.282708,27.9600036 197.896044,27.24 C198.509381,26.5199964 199.076042,25.7066712 199.596044,24.8 C200.116047,23.8933288 200.569376,22.9866712 200.956044,22.08 C201.342713,21.1733288 201.64271,20.3066708 201.856044,19.48 C202.069379,18.6533292 202.176044,17.9600028 202.176044,17.4 C202.176044,16.73333 202.036046,16.2133352 201.756044,15.84 C201.476043,15.4666648 201.029381,15.28 200.416044,15.28 C199.749374,15.28 199.082714,15.5066644 198.416044,15.96 C197.749374,16.4133356 197.109381,16.9999964 196.496044,17.72 C195.882708,18.4400036 195.316047,19.2533288 194.796044,20.16 C194.276042,21.0666712 193.822713,21.9733288 193.436044,22.88 C193.049376,23.7866712 192.749379,24.6533292 192.536044,25.48 C192.32271,26.3066708 192.216044,26.9999972 192.216044,27.56 C192.216044,28.22667 192.356043,28.7466648 192.636044,29.12 C192.916046,29.4933352 193.362708,29.68 193.976044,29.68 Z M205.595605,29.52 C206.955612,27.1733216 208.335598,24.8400116 209.735605,22.52 C211.135612,20.1999884 212.528931,17.840012 213.915605,15.44 L218.475605,15.28 L213.195605,22.72 L213.275605,22.8 C214.288943,21.5466604 215.188934,20.5400038 215.975605,19.78 C216.762275,19.0199962 217.448935,18.4000024 218.035605,17.92 C218.622274,17.4399976 219.115603,17.0733346 219.515605,16.82 C219.915607,16.5666654 220.208937,16.3466676 220.395605,16.16 C220.68894,15.8666652 220.96227,15.6333342 221.215605,15.46 C221.468939,15.2866658 221.768936,15.1533338 222.115605,15.06 C222.462273,14.9666662 222.882269,14.9066668 223.375605,14.88 C223.868941,14.8533332 224.488934,14.8266668 225.235605,14.8 C224.728936,15.5200036 224.262274,16.2733294 223.835605,17.06 C223.408936,17.8466706 223.195605,18.6933288 223.195605,19.6 C223.195605,20.7466724 223.768932,21.32 224.915605,21.32 C225.28894,21.32 225.655603,21.2400008 226.015605,21.08 C226.375607,20.9199992 226.715603,20.7200012 227.035605,20.48 C227.355606,20.2399988 227.66227,19.9800014 227.955605,19.7 C228.24894,19.4199986 228.515604,19.1600012 228.755605,18.92 L228.915605,19.12 C228.168934,20.053338 227.288943,20.8133304 226.275605,21.4 C225.262266,21.9866696 224.155611,22.28 222.955605,22.28 C221.888933,22.28 221.048941,22.0000028 220.435605,21.44 C219.822268,20.8799972 219.515605,20.0533388 219.515605,18.96 C219.515605,18.2666632 219.715603,17.6133364 220.115605,17 L220.035605,16.92 C218.915599,17.6666704 217.848943,18.5333284 216.835605,19.52 C215.822266,20.5066716 214.882276,21.5466612 214.015605,22.64 C213.148934,23.7333388 212.348942,24.8599942 211.615605,26.02 C210.882268,27.1800058 210.222274,28.3066612 209.635605,29.4 L205.595605,29.52 Z M246.375165,19.2 C245.388494,20.400006 244.321838,21.6466602 243.175165,22.94 C242.028493,24.2333398 240.795172,25.413328 239.475165,26.48 C238.155159,27.546672 236.741839,28.4266632 235.235165,29.12 C233.728491,29.8133368 232.135174,30.16 230.455165,30.16 C228.855157,30.16 227.628503,29.726671 226.775165,28.86 C225.921828,27.993329 225.495165,26.7200084 225.495165,25.04 C225.495165,23.7599936 225.868495,22.5066728 226.615165,21.28 C227.361836,20.0533272 228.321826,18.9600048 229.495165,18 C230.668504,17.0399952 231.961825,16.2666696 233.375165,15.68 C234.788506,15.0933304 236.161825,14.8 237.495165,14.8 C238.721838,14.8 239.695162,15.0466642 240.415165,15.54 C241.135169,16.0333358 241.495165,16.6399964 241.495165,17.36 C241.495165,17.8666692 241.395166,18.3266646 241.195165,18.74 C240.995164,19.1533354 240.735167,19.4999986 240.415165,19.78 C240.095164,20.0600014 239.735167,20.2733326 239.335165,20.42 C238.935163,20.5666674 238.535167,20.64 238.135165,20.64 C237.788497,20.64 237.481833,20.6133336 237.215165,20.56 C237.401833,19.9466636 237.601831,19.3200032 237.815165,18.68 C238.0285,18.0399968 238.135165,17.4000032 238.135165,16.76 C238.135165,16.3066644 238.0285,15.946668 237.815165,15.68 C237.601831,15.413332 237.3085,15.28 236.935165,15.28 C236.241828,15.28 235.45517,15.5533306 234.575165,16.1 C233.695161,16.6466694 232.868502,17.3799954 232.095165,18.3 C231.321828,19.2200046 230.668501,20.2733274 230.135165,21.46 C229.601829,22.6466726 229.335165,23.8799936 229.335165,25.16 C229.335165,26.1733384 229.641829,27.0333298 230.255165,27.74 C230.868502,28.4466702 231.721826,28.8 232.815165,28.8 C234.121838,28.8 235.421825,28.4400036 236.715165,27.72 C238.008505,26.9999964 239.235159,26.1266718 240.395165,25.1 C241.555171,24.0733282 242.61516,23.0066722 243.575165,21.9 C244.53517,20.7933278 245.348495,19.840004 246.015165,19.04 L246.375165,19.2 Z M258.354726,15.68 L262.514726,15.44 C262.274724,15.9200024 261.928061,16.4999966 261.474726,17.18 C261.02139,17.8600034 260.528062,18.5933294 259.994726,19.38 C259.46139,20.1666706 258.921395,20.9799958 258.374726,21.82 C257.828056,22.6600042 257.328061,23.4733294 256.874726,24.26 C256.42139,25.0466706 256.054727,25.7799966 255.774726,26.46 C255.494724,27.1400034 255.354726,27.7199976 255.354726,28.2 C255.354726,28.86667 255.688056,29.2 256.354726,29.2 C256.994729,29.2 257.861387,28.8266704 258.954726,28.08 C260.048064,27.3333296 261.19472,26.3466728 262.394726,25.12 C262.901395,24.6133308 263.414723,24.0666696 263.934726,23.48 C264.454728,22.8933304 264.954723,22.3133362 265.434726,21.74 C265.914728,21.1666638 266.354724,20.6333358 266.754726,20.14 C267.154728,19.6466642 267.474724,19.2400016 267.714726,18.92 L267.994726,19.08 C267.301389,20.013338 266.501397,21.046661 265.594726,22.18 C264.688054,23.313339 263.594732,24.5199936 262.314726,25.8 C261.034719,27.0800064 259.774732,28.1266626 258.534726,28.94 C257.294719,29.7533374 256.061398,30.16 254.834726,30.16 C253.981388,30.16 253.321395,29.9400022 252.854726,29.5 C252.388057,29.0599978 252.154726,28.5200032 252.154726,27.88 C252.154726,27.6666656 252.168059,27.4666676 252.194726,27.28 C252.221392,27.0933324 252.261392,26.9466672 252.314726,26.84 L252.234726,26.84 C251.408055,27.773338 250.474731,28.5599968 249.434726,29.2 C248.39472,29.8400032 247.274732,30.16 246.074726,30.16 C245.434722,30.16 244.888061,30.0400012 244.434726,29.8 C243.98139,29.5599988 243.614727,29.2333354 243.334726,28.82 C243.054724,28.4066646 242.84806,27.9400026 242.714726,27.42 C242.581392,26.8999974 242.514726,26.3600028 242.514726,25.8 C242.514726,24.4933268 242.874722,23.1866732 243.594726,21.88 C244.314729,20.5733268 245.221387,19.3933386 246.314726,18.34 C247.408064,17.2866614 248.628052,16.4333366 249.974726,15.78 C251.321399,15.1266634 252.608053,14.8 253.834726,14.8 C254.768064,14.8 255.50139,14.999998 256.034726,15.4 C256.568062,15.800002 257.008057,16.4266624 257.354726,17.28 L258.354726,15.68 Z M246.354726,25.92 C246.354726,26.6933372 246.481391,27.3666638 246.734726,27.94 C246.98806,28.5133362 247.528055,28.8 248.354726,28.8 C248.914728,28.7733332 249.501389,28.5400022 250.114726,28.1 C250.728062,27.6599978 251.321389,27.10667 251.894726,26.44 C252.468062,25.77333 253.014723,25.0333374 253.534726,24.22 C254.054728,23.4066626 254.508057,22.5866708 254.894726,21.76 C255.281394,20.9333292 255.588058,20.153337 255.814726,19.42 C256.041393,18.686663 256.154726,18.0666692 256.154726,17.56 C256.154726,16.8399964 256.021394,16.280002 255.754726,15.88 C255.488058,15.479998 254.968063,15.28 254.194726,15.28 C253.581389,15.28 252.961395,15.4666648 252.334726,15.84 C251.708056,16.2133352 251.108062,16.7066636 250.534726,17.32 C249.961389,17.9333364 249.414728,18.6199962 248.894726,19.38 C248.374723,20.1400038 247.928061,20.919996 247.554726,21.72 C247.18139,22.520004 246.88806,23.286663 246.674726,24.02 C246.461391,24.753337 246.354726,25.386664 246.354726,25.92 Z M266.254286,16.16 L266.534286,15.44 L269.614286,15.44 L272.614286,10.4 L276.934286,10.24 L273.614286,15.44 L278.694286,15.44 L278.334286,16.16 L273.174286,16.16 C271.97428,18.1333432 270.960957,19.7933266 270.134286,21.14 C269.307615,22.4866734 268.647622,23.6066622 268.154286,24.5 C267.66095,25.3933378 267.300954,26.106664 267.074286,26.64 C266.847618,27.173336 266.734286,27.639998 266.734286,28.04 C266.734286,28.3866684 266.827619,28.6666656 267.014286,28.88 C267.200954,29.0933344 267.467618,29.2 267.814286,29.2 C268.480956,29.2 269.360947,28.8600034 270.454286,28.18 C271.547625,27.4999966 272.720947,26.560006 273.974286,25.36 C274.827624,24.5066624 275.760948,23.5066724 276.774286,22.36 C277.787625,21.2133276 278.734282,20.0533392 279.614286,18.88 L279.854286,19.08 C279.24095,19.880004 278.467624,20.8533276 277.534286,22 C276.600948,23.1466724 275.574292,24.2799944 274.454286,25.4 C273.84095,26.0133364 273.207623,26.5933306 272.554286,27.14 C271.90095,27.6866694 271.240956,28.1666646 270.574286,28.58 C269.907616,28.9933354 269.254289,29.3199988 268.614286,29.56 C267.974283,29.8000012 267.347623,29.92 266.734286,29.92 C265.880949,29.92 265.134289,29.7266686 264.494286,29.34 C263.854283,28.9533314 263.534286,28.2800048 263.534286,27.32 C263.534286,26.6266632 263.680951,25.913337 263.974286,25.18 C264.267621,24.446663 264.674284,23.6400044 265.194286,22.76 C265.714289,21.8799956 266.320949,20.906672 267.014286,19.84 C267.707623,18.773328 268.454282,17.5466736 269.254286,16.16 L266.254286,16.16 Z M300.233847,19.16 C299.700511,19.8533368 299.067184,20.4799972 298.333847,21.04 C297.60051,21.6000028 296.793851,21.88 295.913847,21.88 C295.30051,21.88 294.767182,21.746668 294.313847,21.48 C293.860511,21.213332 293.447182,20.8400024 293.073847,20.36 C292.753845,21.69334 292.227184,22.9533274 291.493847,24.14 C290.76051,25.3266726 289.873852,26.3666622 288.833847,27.26 C287.793841,28.1533378 286.633853,28.8599974 285.353847,29.38 C284.07384,29.9000026 282.74052,30.16 281.353847,30.16 C279.887173,30.16 278.713851,29.7400042 277.833847,28.9 C276.953842,28.0599958 276.513847,26.906674 276.513847,25.44 C276.513847,24.0266596 276.873843,22.6733398 277.593847,21.38 C278.31385,20.0866602 279.247174,18.9533382 280.393847,17.98 C281.540519,17.0066618 282.807173,16.2333362 284.193847,15.66 C285.58052,15.0866638 286.940507,14.8 288.273847,14.8 C289.713854,14.8 290.847176,15.1866628 291.673847,15.96 C292.500517,16.7333372 293.007179,17.6666612 293.193847,18.76 C293.327181,19.560004 293.627178,20.1999976 294.093847,20.68 C294.560516,21.1600024 295.167176,21.4 295.913847,21.4 C296.63385,21.4 297.313843,21.1866688 297.953847,20.76 C298.59385,20.3333312 299.273843,19.6933376 299.993847,18.84 L300.233847,19.16 Z M281.633847,29.68 C282.300517,29.68 282.967177,29.4533356 283.633847,29 C284.300517,28.5466644 284.94051,27.9600036 285.553847,27.24 C286.167183,26.5199964 286.733844,25.7066712 287.253847,24.8 C287.773849,23.8933288 288.227178,22.9866712 288.613847,22.08 C289.000515,21.1733288 289.300512,20.3066708 289.513847,19.48 C289.727181,18.6533292 289.833847,17.9600028 289.833847,17.4 C289.833847,16.73333 289.693848,16.2133352 289.413847,15.84 C289.133845,15.4666648 288.687183,15.28 288.073847,15.28 C287.407177,15.28 286.740517,15.5066644 286.073847,15.96 C285.407177,16.4133356 284.767183,16.9999964 284.153847,17.72 C283.54051,18.4400036 282.973849,19.2533288 282.453847,20.16 C281.933844,21.0666712 281.480515,21.9733288 281.093847,22.88 C280.707178,23.7866712 280.407181,24.6533292 280.193847,25.48 C279.980512,26.3066708 279.873847,26.9999972 279.873847,27.56 C279.873847,28.22667 280.013845,28.7466648 280.293847,29.12 C280.573848,29.4933352 281.02051,29.68 281.633847,29.68 Z" id="RichardTorcato"></path>
            </g>
        </g>
    </g>
</svg>